<?xml version="1.0" standalone="no"?>
<!DOCTYPE svg PUBLIC "-//W3C//DTD SVG 20010904//EN"
 "http://www.w3.org/TR/2001/REC-SVG-20010904/DTD/svg10.dtd">
<svg version="1.0" xmlns="http://www.w3.org/2000/svg"
 width="240.000000pt" height="240.000000pt" viewBox="0 0 240.000000 240.000000"
 preserveAspectRatio="xMidYMid meet">

<g transform="translate(0.000000,240.000000) scale(0.100000,-0.100000)"
fill="#000000" stroke="none">
<path d="M1090 2291 c-72 -10 -217 -46 -263 -66 -31 -13 -37 -20 -37 -46 0
-35 -8 -36 107 5 152 53 352 67 503 35 215 -47 364 -126 518 -274 56 -55 106
-98 109 -95 3 3 3 0 0 -6 -4 -7 11 -39 34 -73 54 -80 104 -199 126 -293 11
-49 23 -78 31 -78 7 0 10 -5 7 -11 -4 -5 -8 -83 -10 -172 -2 -169 -19 -250
-74 -381 -18 -41 -18 -45 -3 -49 12 -3 10 -5 -5 -6 -13 0 -23 -5 -23 -9 0 -20
-116 -181 -168 -235 -212 -219 -517 -337 -802 -311 -47 4 -98 8 -115 8 -16 1
-32 4 -35 7 -6 7 -134 49 -148 49 -19 0 -178 93 -236 138 -33 25 -83 70 -112
99 -30 29 -57 53 -62 53 -5 0 -9 6 -9 13 0 7 -16 35 -35 62 -98 136 -165 325
-175 485 -5 97 -9 114 -23 105 -5 -3 -10 1 -10 10 0 11 5 15 16 11 8 -3 13 -2
10 3 -9 14 31 220 58 299 75 219 272 447 479 554 37 18 38 20 20 34 -10 9 -12
13 -5 9 14 -7 17 11 2 20 -16 10 -95 -39 -94 -58 2 -18 -12 -24 -18 -7 -1 5
-22 -2 -46 -16 -30 -18 -42 -31 -38 -41 5 -11 2 -13 -10 -9 -11 4 -18 -1 -21
-15 -3 -12 -9 -16 -12 -10 -8 13 -97 -77 -167 -169 -57 -76 -138 -235 -130
-256 3 -8 1 -14 -5 -14 -30 0 -69 -207 -69 -365 0 -142 3 -155 33 -147 l22 5
-23 -19 -22 -19 24 -90 c34 -125 45 -148 70 -141 20 5 20 4 3 -9 -18 -13 -17
-15 4 -57 102 -201 286 -380 494 -479 266 -127 549 -140 831 -37 46 16 82 33
80 37 -3 4 4 8 15 8 52 4 246 147 328 243 76 88 124 158 116 170 -3 6 -1 10 5
10 16 0 85 151 109 240 27 95 36 169 36 295 0 160 -18 263 -49 275 -18 7 -18
9 -3 9 21 1 19 11 -23 113 -43 103 -99 198 -114 192 -8 -3 -12 3 -12 18 1 13
-4 22 -11 21 -7 -2 -10 3 -7 11 8 22 -153 178 -249 240 -152 100 -324 163
-467 172 -169 12 -197 12 -250 5z m-365 -141 c3 -5 1 -10 -4 -10 -6 0 -11 5
-11 10 0 6 2 10 4 10 3 0 8 -4 11 -10z m-31 -16 c3 -8 2 -12 -4 -9 -6 3 -10
10 -10 16 0 14 7 11 14 -7z m-134 -104 c0 -5 -5 -10 -11 -10 -5 0 -7 5 -4 10
3 6 8 10 11 10 2 0 4 -4 4 -10z m1627 -426 c-3 -3 -12 -4 -19 -1 -8 3 -5 6 6
6 11 1 17 -2 13 -5z m-1717 -1084 c0 -5 -5 -10 -11 -10 -5 0 -7 5 -4 10 3 6 8
10 11 10 2 0 4 -4 4 -10z m1080 -272 c0 -4 -17 -8 -37 -7 -33 1 -35 2 -13 8
33 10 50 9 50 -1z m-625 -8 c3 -5 1 -10 -4 -10 -6 0 -11 5 -11 10 0 6 2 10 4
10 3 0 8 -4 11 -10z"/>
<path d="M1082 2201 c-24 -4 -48 -14 -54 -22 -7 -10 -11 -11 -14 -2 -7 17
-132 -20 -229 -68 -188 -93 -354 -259 -448 -445 -55 -109 -105 -302 -84 -323
8 -8 8 -11 -1 -11 -15 0 -16 -168 -1 -260 39 -240 181 -472 386 -629 24 -18
47 -30 52 -27 5 3 11 -1 15 -9 7 -18 122 -76 206 -103 79 -25 151 -32 157 -14
3 8 -6 12 -24 12 -41 0 -190 52 -270 94 -230 121 -405 340 -474 591 -32 118
-37 310 -11 435 70 341 316 611 654 719 37 11 82 23 100 25 18 3 54 8 81 11
26 3 47 11 47 17 0 10 10 9 70 -7 14 -3 45 -8 70 -10 25 -2 65 -8 90 -14 35
-8 48 -7 58 3 11 11 3 15 -45 24 -120 22 -146 25 -139 13 4 -6 0 -11 -8 -11
-9 0 -16 4 -16 9 0 10 -109 11 -168 2z m-592 -341 c0 -5 -5 -10 -11 -10 -5 0
-7 5 -4 10 3 6 8 10 11 10 2 0 4 -4 4 -10z"/>
<path d="M1480 2160 c-19 -12 -15 -14 46 -34 27 -9 85 -34 128 -56 43 -22 83
-37 89 -33 5 3 7 1 4 -5 -4 -5 15 -26 42 -46 116 -85 241 -249 301 -393 67
-159 88 -377 53 -543 -8 -41 -15 -89 -16 -107 0 -18 -4 -30 -8 -28 -4 3 -20
-25 -35 -63 -38 -87 -106 -192 -177 -268 -31 -34 -54 -64 -50 -68 3 -3 -1 -6
-10 -6 -9 0 -40 -17 -68 -39 -79 -60 -173 -108 -273 -140 -107 -34 -368 -71
-374 -52 -5 16 -37 14 -51 -3 -19 -22 119 -31 243 -17 224 28 404 113 567 268
131 125 227 288 275 468 29 109 27 370 -4 484 -83 303 -303 550 -594 665 -76
30 -69 28 -88 16z"/>
<path d="M1165 2010 c-4 -12 -15 -20 -28 -20 -20 -1 -21 -2 -5 -14 11 -8 15
-20 11 -35 -5 -21 -4 -22 17 -11 16 9 25 9 33 1 21 -21 27 -11 11 20 -14 29
-14 31 0 26 8 -3 18 -2 21 3 4 6 -3 10 -14 10 -12 0 -21 6 -21 14 0 24 -18 28
-25 6z"/>
<path d="M924 1976 c-14 -15 -4 -40 17 -44 18 -3 21 27 5 44 -9 8 -14 8 -22 0z"/>
<path d="M1385 1974 c-10 -8 -14 -14 -7 -14 6 0 9 -6 6 -14 -4 -11 0 -13 15
-9 24 6 32 25 17 39 -9 8 -17 8 -31 -2z"/>
<path d="M440 1485 l0 -235 75 0 75 0 0 34 c0 34 -1 35 -47 38 l-48 3 -3 198
-2 197 -25 0 -25 0 0 -235z"/>
<path d="M653 1712 c-26 -16 -33 -68 -32 -236 1 -209 4 -220 73 -224 85 -6 86
-2 86 230 0 185 -1 199 -20 218 -20 20 -83 27 -107 12z m77 -232 l0 -160 -25
0 c-25 0 -25 1 -26 83 0 45 -2 114 -3 152 -2 39 -1 73 1 78 2 4 15 7 29 7 l24
0 0 -160z"/>
<path d="M820 1668 c0 -29 7 -134 15 -233 8 -99 15 -181 15 -183 0 -2 12 -2
27 0 27 3 28 5 49 128 22 133 25 133 44 0 20 -134 19 -132 48 -128 l27 3 17
205 c22 279 23 260 -6 260 -29 0 -35 -20 -37 -115 0 -38 -4 -90 -7 -115 -7
-44 -8 -43 -20 45 -7 50 -15 108 -18 130 -6 47 -11 55 -29 55 -17 0 -19 -8
-39 -154 -8 -60 -17 -110 -19 -113 -3 -2 -8 57 -12 132 -7 134 -7 135 -31 135
-22 0 -24 -4 -24 -52z"/>
<path d="M1254 1712 c-29 -19 -34 -56 -34 -234 0 -218 3 -228 79 -228 64 0 81
19 81 93 0 54 -1 57 -24 57 -21 0 -25 -5 -28 -37 -2 -30 -7 -38 -23 -38 -19 0
-20 8 -23 158 l-3 158 23 -3 c19 -2 24 -10 26 -40 3 -33 7 -38 28 -38 23 0 24
3 24 60 0 74 -20 100 -77 100 -21 0 -43 -4 -49 -8z"/>
<path d="M1480 1708 c0 -7 -15 -113 -34 -235 l-33 -223 28 0 c24 0 27 4 33 45
7 43 9 45 40 45 35 0 46 -15 46 -67 0 -19 6 -23 30 -23 26 0 30 3 25 23 -4 20
-65 431 -65 442 0 3 -16 5 -35 5 -21 0 -35 -5 -35 -12z m55 -243 l6 -62 -26 5
c-25 4 -27 8 -22 41 4 20 9 61 13 91 7 53 8 54 15 21 4 -18 10 -61 14 -96z"/>
<path d="M1657 1713 c-4 -3 -7 -109 -7 -235 l0 -228 31 0 31 0 -4 72 c-2 62 0
73 14 76 13 3 19 -11 29 -72 12 -75 12 -76 41 -76 23 0 28 4 24 18 -3 9 -10
45 -16 79 -9 53 -8 66 5 87 13 19 16 47 14 128 -2 100 -10 135 -33 150 -14 10
-120 10 -129 1z m105 -140 c5 -84 2 -93 -28 -93 -23 0 -24 2 -24 80 0 78 1 80
24 80 23 0 25 -4 28 -67z"/>
<path d="M1860 1486 l0 -236 64 0 c85 0 96 14 96 125 0 44 -4 87 -10 95 -5 9
-5 19 2 27 6 7 9 50 7 104 -5 108 -10 115 -99 118 l-60 2 0 -235z m104 138 c3
-9 6 -28 6 -44 0 -44 -10 -60 -36 -60 -23 0 -24 3 -24 60 0 57 1 60 24 60 13
0 27 -7 30 -16z m1 -244 c0 -52 -1 -55 -25 -55 -23 0 -25 4 -28 58 l-3 58 28
-3 c27 -3 28 -5 28 -58z"/>
<path d="M1060 1160 l-85 -5 0 -260 0 -260 118 -3 117 -3 0 45 0 46 -80 0 -81
0 3 67 3 68 45 1 c82 1 80 0 80 44 l0 39 -62 3 -63 3 0 65 0 65 78 3 77 3 0
38 c0 36 -2 39 -32 42 -18 2 -71 2 -118 -1z"/>
<path d="M580 895 l0 -266 35 3 35 2 0 150 c0 82 3 147 6 143 4 -3 15 -48 25
-99 11 -51 24 -117 30 -145 8 -42 14 -53 30 -53 25 0 34 23 59 155 32 171 35
171 40 5 l5 -155 33 -3 32 -3 1 153 c1 226 1 299 0 341 l-1 37 -48 0 -49 0
-21 -107 c-11 -60 -26 -133 -33 -163 -12 -53 -12 -54 -20 -25 -5 17 -21 90
-35 163 l-27 132 -48 0 -49 0 0 -265z"/>
<path d="M1273 898 l2 -263 37 -3 37 -3 3 148 3 148 19 -55 c11 -30 21 -60 22
-67 6 -36 47 -143 55 -143 4 0 6 -7 2 -16 -5 -13 1 -15 33 -12 l39 3 1 263 0
262 -38 0 -38 0 0 -142 c0 -78 -3 -139 -6 -135 -4 3 -26 67 -51 142 l-44 135
-39 0 -40 0 3 -262z"/>
<path d="M1590 921 c0 -293 -3 -286 115 -286 118 0 115 -7 115 286 l0 239 -35
0 -35 0 0 -204 c0 -112 -3 -211 -6 -220 -7 -19 -59 -22 -70 -4 -5 7 -7 106 -5
220 l2 208 -40 0 -41 0 0 -239z"/>
<path d="M1186 456 c4 -17 0 -27 -13 -35 -16 -9 -16 -10 5 -11 15 0 26 -7 29
-20 3 -11 9 -20 13 -20 4 0 10 9 13 20 3 13 14 20 29 20 21 1 21 2 5 11 -13 8
-17 18 -13 35 7 26 -3 31 -22 12 -9 -9 -15 -9 -24 0 -19 19 -29 14 -22 -12z"/>
<path d="M964 463 c3 -3 1 -12 -4 -18 -12 -15 11 -28 34 -19 20 8 8 40 -16 41
-11 1 -18 -1 -14 -4z"/>
<path d="M1427 447 c-7 -18 18 -38 31 -25 13 13 4 38 -13 38 -7 0 -15 -6 -18
-13z"/>
</g>
</svg>
