<?xml version="1.0" standalone="no"?>
<!DOCTYPE svg PUBLIC "-//W3C//DTD SVG 20010904//EN"
 "http://www.w3.org/TR/2001/REC-SVG-20010904/DTD/svg10.dtd">
<svg version="1.0" xmlns="http://www.w3.org/2000/svg"
 width="240.000000pt" height="240.000000pt" viewBox="0 0 240.000000 240.000000"
 preserveAspectRatio="xMidYMid meet">

<g transform="translate(0.000000,240.000000) scale(0.100000,-0.100000)"
fill="#000000" stroke="none">
<path d="M1050 2124 c-207 -40 -380 -134 -520 -280 -175 -184 -260 -393 -260
-644 0 -251 85 -460 260 -644 120 -126 253 -206 427 -258 68 -20 100 -23 243
-23 180 0 247 13 385 75 260 117 472 381 529 662 21 99 21 277 0 376 -57 281
-269 545 -529 662 -127 57 -198 72 -360 75 -82 2 -161 1 -175 -1z m237 -85
c158 -17 337 -90 443 -180 l34 -29 -97 -98 -98 -99 38 -25 38 -26 92 91 93 91
29 -34 c16 -19 49 -68 72 -108 305 -530 -32 -1192 -643 -1261 -210 -24 -465
50 -618 180 l-35 29 154 154 154 154 -34 21 c-19 12 -38 21 -44 21 -5 0 -74
-64 -152 -142 l-143 -143 -29 35 c-48 57 -112 175 -142 263 -171 502 173 1044
703 1106 40 5 77 9 81 10 4 0 51 -4 104 -10z"/>
<path d="M995 1646 c-130 -25 -230 -74 -308 -149 -60 -59 -81 -101 -81 -164
-1 -96 59 -146 184 -157 108 -9 132 -20 226 -106 149 -136 227 -173 365 -174
77 0 92 3 160 36 97 46 148 92 189 170 30 55 34 72 35 138 0 64 -5 85 -31 140
-54 112 -171 209 -303 251 -84 28 -328 36 -436 15z m481 -387 c73 -68 -60
-154 -143 -93 -68 50 -14 130 80 120 22 -3 50 -14 63 -27z"/>
<path d="M600 1164 c0 -21 9 -58 20 -82 23 -52 72 -76 170 -87 92 -9 142 -35
226 -115 119 -113 243 -170 368 -170 187 0 360 144 382 317 l7 48 -30 -40
c-46 -62 -110 -115 -178 -146 -188 -88 -361 -50 -550 122 -49 45 -105 88 -123
96 -17 7 -69 17 -115 22 -86 8 -116 19 -154 54 l-23 20 0 -39z"/>
</g>
</svg>
