<?xml version="1.0" standalone="no"?>
<!DOCTYPE svg PUBLIC "-//W3C//DTD SVG 20010904//EN"
 "http://www.w3.org/TR/2001/REC-SVG-20010904/DTD/svg10.dtd">
<svg version="1.0" xmlns="http://www.w3.org/2000/svg"
 width="240.000000pt" height="240.000000pt" viewBox="0 0 240.000000 240.000000"
 preserveAspectRatio="xMidYMid meet">

<g transform="translate(0.000000,240.000000) scale(0.100000,-0.100000)"
fill="#000000" stroke="none">
<path d="M1064 2116 c-210 -40 -376 -140 -499 -300 -111 -146 -165 -306 -165
-490 0 -310 159 -574 430 -716 l77 -40 7 47 c12 86 12 86 -68 137 -150 94
-264 255 -302 422 -22 101 -15 261 16 354 22 65 91 193 111 206 10 6 949 -921
949 -936 0 -3 -27 -22 -60 -44 -138 -89 -333 -125 -489 -92 -41 9 -77 14 -79
11 -3 -3 -5 -33 -6 -67 l-1 -62 70 -14 c86 -16 265 -10 350 12 93 25 233 98
310 163 282 236 367 633 207 968 -61 127 -171 251 -288 326 l-31 19 -33 -43
c-19 -23 -38 -43 -42 -45 -21 -9 -3 -20 40 -26 55 -7 66 -14 52 -31 -7 -9 7
-30 53 -77 127 -129 185 -263 194 -443 4 -82 1 -128 -11 -180 -18 -74 -81
-213 -116 -254 l-21 -25 -472 473 -472 472 25 20 c111 92 313 149 465 131 l60
-7 26 55 25 55 25 -52 c13 -29 26 -53 29 -53 8 1 63 81 58 86 -3 2 -40 13 -84
24 -103 27 -248 34 -340 16z"/>
<path d="M1595 2119 c-11 -6 -37 -23 -57 -36 -74 -50 -130 -173 -78 -173 42 0
114 85 155 183 16 39 13 43 -20 26z"/>
<path d="M1356 2010 c-19 -63 -19 -73 -6 -122 14 -51 65 -82 117 -72 40 7 133
52 133 64 0 17 -88 21 -130 6 -49 -17 -64 -13 -55 15 8 24 -12 121 -29 145
-13 17 -15 14 -30 -36z"/>
<path d="M1279 1944 c-7 -16 -13 -59 -13 -96 -1 -54 3 -72 22 -98 l23 -31 -20
-32 -21 -32 0 35 c0 47 -18 108 -43 149 l-21 34 -12 -34 c-28 -76 -10 -203 31
-226 15 -9 15 -12 -2 -47 l-17 -38 -13 67 c-12 64 -54 155 -73 155 -10 0 -23
-71 -22 -127 0 -60 18 -105 53 -139 26 -25 38 -29 87 -28 63 0 103 17 171 73
l43 35 -28 8 c-42 12 -112 -1 -161 -27 -24 -13 -43 -22 -43 -20 0 3 8 20 17
39 13 28 19 33 30 25 17 -15 84 -4 136 22 45 23 87 57 87 71 0 16 -120 8 -160
-11 -45 -22 -46 -21 -25 20 13 25 19 28 35 19 36 -19 114 4 184 53 27 19 28
21 10 28 -32 13 -100 10 -138 -6 -20 -9 -41 -13 -46 -10 -6 4 -10 25 -10 49 0
46 -15 99 -36 130 -13 18 -14 18 -25 -10z"/>
<path d="M1365 1804 c-9 -15 -12 -23 -6 -20 11 7 35 46 28 46 -3 0 -12 -12
-22 -26z"/>
<path d="M1030 1613 c0 -5 12 -20 26 -34 24 -21 26 -22 16 -3 -13 25 -42 50
-42 37z"/>
<path d="M935 1412 c-4 -29 -2 -74 5 -105 13 -63 62 -147 86 -147 13 0 15 -7
9 -37 -9 -53 -22 -61 -30 -21 -15 69 -106 208 -136 208 -15 0 -10 -145 8 -199
17 -54 75 -131 99 -131 15 0 16 -17 4 -65 -6 -27 -8 -28 -15 -10 -32 82 -59
128 -104 178 -29 31 -58 57 -63 57 -13 0 -4 -137 12 -192 15 -53 70 -130 105
-148 17 -8 32 -16 34 -17 2 -1 -2 -39 -8 -85 -25 -194 -25 -188 -4 -188 18 0
21 12 32 127 7 70 15 131 17 135 3 4 17 8 32 8 41 0 123 52 178 112 48 54 81
104 73 112 -8 8 -114 -16 -151 -35 -20 -10 -53 -33 -73 -50 -30 -26 -35 -28
-35 -13 0 33 12 64 22 58 33 -21 173 55 223 120 26 34 27 37 11 55 -14 16 -23
17 -58 10 -52 -12 -96 -35 -130 -67 -31 -28 -37 -17 -18 32 8 21 16 26 45 26
20 0 54 9 77 21 l41 21 -41 41 c-40 40 -42 41 -62 22 -22 -20 -27 -7 -10 25 7
13 7 21 0 25 -6 4 -16 -8 -22 -26 l-11 -32 -22 67 c-17 51 -33 79 -67 113
l-46 46 -7 -51z"/>
<path d="M1274 1441 c-56 -14 -58 -20 -23 -57 18 -19 38 -34 44 -34 16 0 97
85 89 93 -9 9 -69 7 -110 -2z"/>
<path d="M505 378 c-32 -17 -45 -39 -45 -75 0 -48 37 -83 88 -83 45 0 62 14
62 52 0 24 -4 28 -30 28 -16 0 -30 -4 -30 -10 0 -5 7 -10 16 -10 25 0 12 -35
-14 -38 -50 -7 -81 59 -49 103 11 14 22 17 55 12 44 -5 55 5 23 23 -25 13 -51
12 -76 -2z"/>
<path d="M640 306 l0 -86 45 0 c25 0 45 5 45 10 0 6 -13 10 -30 10 l-29 0 -3
72 c-2 46 -7 73 -15 76 -10 3 -13 -18 -13 -82z"/>
<path d="M760 322 c0 -78 15 -102 67 -102 47 0 63 26 63 104 0 90 -23 87 -30
-4 -4 -45 -10 -66 -22 -74 -30 -18 -52 15 -54 81 -3 85 -24 81 -24 -5z"/>
<path d="M917 383 c-14 -13 -6 -23 18 -23 24 0 25 -2 25 -70 0 -56 3 -70 15
-70 12 0 15 14 15 70 0 68 1 70 25 70 16 0 25 6 25 15 0 12 -13 15 -58 15 -32
0 -62 -3 -65 -7z"/>
<path d="M1070 305 l0 -85 50 0 c58 0 68 17 13 22 -30 2 -37 7 -38 26 -1 18 3
22 27 22 36 0 37 18 1 22 -19 2 -27 9 -28 26 -1 19 3 22 37 22 27 0 38 4 38
15 0 11 -12 15 -50 15 l-50 0 0 -85z"/>
<path d="M1200 305 c0 -50 4 -85 10 -85 6 0 10 25 10 55 0 30 3 55 8 55 4 -1
25 -25 47 -55 56 -77 65 -73 65 31 0 64 -3 85 -12 82 -8 -3 -15 -28 -18 -58
l-5 -54 -44 57 c-24 31 -47 57 -52 57 -5 0 -9 -38 -9 -85z"/>
<path d="M1420 305 c0 -69 3 -85 15 -85 10 0 15 11 15 35 0 32 2 35 30 35 17
0 30 5 30 10 0 6 -13 10 -30 10 -25 0 -30 4 -30 25 0 22 4 25 35 25 24 0 35 5
35 15 0 11 -12 15 -50 15 l-50 0 0 -85z"/>
<path d="M1550 305 c0 -69 3 -85 15 -85 10 0 15 10 15 29 0 44 16 46 42 7 13
-20 31 -36 42 -36 17 0 16 3 -6 33 l-25 32 19 26 c26 34 12 64 -33 73 -70 14
-69 15 -69 -79z m85 30 c0 -14 -8 -21 -27 -23 -24 -3 -28 0 -28 23 0 23 4 26
28 23 19 -2 27 -9 27 -23z"/>
<path d="M1707 384 c-4 -4 -7 -43 -7 -86 l0 -78 55 0 c30 0 55 5 55 10 0 6
-18 10 -40 10 -36 0 -40 3 -40 25 0 21 5 25 30 25 38 0 40 18 3 22 -20 2 -29
9 -31 25 -3 19 2 22 35 25 21 2 38 8 38 13 0 12 -87 19 -98 9z"/>
<path d="M1840 305 l0 -85 50 0 c28 0 50 5 50 10 0 6 -16 10 -35 10 -31 0 -35
3 -35 25 0 20 5 25 24 25 14 0 28 5 31 10 4 6 -7 10 -24 10 -26 0 -31 4 -31
25 0 22 4 25 35 25 24 0 35 5 35 15 0 11 -12 15 -50 15 l-50 0 0 -85z"/>
</g>
</svg>
